<svg xmlns="http://www.w3.org/2000/svg" width="36.342" height="39.11" viewBox="0 0 36.342 39.11">
  <g id="filament__active" transform="translate(-123 -366)">
    <g id="Ellipse_20" data-name="Ellipse 20" transform="translate(123 366)" fill="none" stroke="#fff" stroke-width="1">
      <circle cx="18.171" cy="18.171" r="18.171" stroke="none"/>
      <circle cx="18.171" cy="18.171" r="17.671" fill="none"/>
    </g>
    <g id="Ellipse_21" data-name="Ellipse 21" transform="translate(126.634 369.634)" fill="none" stroke="#fff" stroke-width="7">
      <circle cx="14.537" cy="14.537" r="14.537" stroke="none"/>
      <circle cx="14.537" cy="14.537" r="11.037" fill="none"/>
    </g>
    <g id="Path_4" data-name="Path 4" transform="translate(153.282 385.382)" fill="#fff">
      <path d="M 0.4843756556510925 8.558994293212891 L 0.4843756556510925 1.606113195419312 L 0.7146956324577332 1.340359330177307 L 0.7146956324577332 8.293240547180176 L 0.4843756556510925 8.558994293212891 Z" stroke="none"/>
      <path d="M 1.214695692062378 -2.86102294921875e-06 L 1.214695692062378 8.479757308959961 L -0.01562440395355225 9.899356842041016 L -0.01562440395355225 1.419596672058105 L 1.214695692062378 -2.86102294921875e-06 Z" stroke="none" fill="#fff"/>
    </g>
    <g id="Path_5" data-name="Path 5" transform="translate(153.282 397.496)" fill="#fff">
      <path d="M 0.4843756556510925 6.501401901245117 L 0.4843756556510925 1.316601037979126 L 0.7146956324577332 1.112208724021912 L 0.7146956324577332 6.297009944915771 L 0.4843756556510925 6.501401901245117 Z" stroke="none"/>
      <path d="M 1.214695692062378 -4.76837158203125e-06 L 1.214695692062378 6.521795272827148 L -0.01562440395355225 7.6136155128479 L -0.01562440395355225 1.09181547164917 L 1.214695692062378 -4.76837158203125e-06 Z" stroke="none" fill="#fff"/>
    </g>
  </g>
</svg>
