<svg xmlns="http://www.w3.org/2000/svg" width="41.142" height="29.493" viewBox="0 0 41.142 29.493">
  <g id="queues" transform="translate(-7779.445 -464)">
    <path id="Union_11" data-name="Union 11" d="M22.019,27.493h-.012v-.028L19,20.715h1.814V19.524H23.6v1.2h0v-.4h2.347l-.173-1.581h-.014l-.455-.865,6.662.036V4.781h.015V2.391h-.3V.4h.112A2.018,2.018,0,0,0,32.1.234a2.248,2.248,0,0,0,.28-.228V0h3.188V.006a2.238,2.238,0,0,0,.281.228A2.008,2.008,0,0,0,36.159.4h.192V2.391h-.4V3.985h2.689l.9-.391V3.586h5.6v.4H44.32V9.563h.006L43.911,14.3l9.083-2.777.145,3.948-.35.119.321-.091a12.283,12.283,0,0,1-2.76,6.223,32.9,32.9,0,0,1-7.226,5.761v.01Zm17.519-8.766V12.351a4.8,4.8,0,0,0-.616-1.99,2.2,2.2,0,0,0-1.377-.794,2.2,2.2,0,0,0-1.376.794,4.813,4.813,0,0,0-.616,1.991V9.563h0v9.164ZM44.32,5.977V3.985h.834l-.834,2.7Z" transform="translate(7767.448 464)" fill="#19394a" opacity="0.8"/>
    <path id="Union_9" data-name="Union 9" d="M22.019,27.493h-.012v-.028L19,20.715h1.814V19.524H23.6v1.2h0v-.4h2.347l-.173-1.581h-.014l-.455-.865,6.662.036V4.781h.015V2.391h-.3V.4h.112A2.018,2.018,0,0,0,32.1.234a2.248,2.248,0,0,0,.28-.228V0h3.188V.006a2.238,2.238,0,0,0,.281.228A2.008,2.008,0,0,0,36.159.4h.192V2.391h-.4V3.985h2.689l.9-.391V3.586h5.6v.4H44.32V9.563h.006L43.911,14.3l9.083-2.777.145,3.948-.35.119.321-.091a12.283,12.283,0,0,1-2.76,6.223,32.9,32.9,0,0,1-7.226,5.761v.01Zm17.519-8.766V12.351a4.8,4.8,0,0,0-.616-1.99,2.2,2.2,0,0,0-1.377-.794,2.2,2.2,0,0,0-1.376.794,4.813,4.813,0,0,0-.616,1.991V9.563h0v9.164ZM44.32,5.977V3.985h.834l-.834,2.7Z" transform="translate(7760.448 466)" fill="#081319"/>
  </g>
</svg>
