<svg id="notification_1_" data-name="notification (1)" xmlns="http://www.w3.org/2000/svg" width="18.348" height="22.018" viewBox="0 0 18.348 22.018">
  <g id="Group_20" data-name="Group 20" transform="translate(0)">
    <g id="Group_19" data-name="Group 19">
      <path id="Path_1" data-name="Path 1" d="M60.957,18.571l-1.575-2.626a7.8,7.8,0,0,1-1.112-4.013v-2.3a6.43,6.43,0,0,0-4.587-6.151V1.835a1.835,1.835,0,1,0-3.67,0V3.482a6.43,6.43,0,0,0-4.587,6.151v2.3a7.8,7.8,0,0,1-1.111,4.012L42.741,18.57a.46.46,0,0,0,.393.7h17.43a.459.459,0,0,0,.394-.695Z" transform="translate(-42.675)" fill="#3c454d"/>
    </g>
  </g>
  <g id="Group_22" data-name="Group 22" transform="translate(6.284 20.183)">
    <g id="Group_21" data-name="Group 21">
      <path id="Path_2" data-name="Path 2" d="M188.815,469.333a3.192,3.192,0,0,0,5.778,0Z" transform="translate(-188.815 -469.333)" fill="#3c454d"/>
    </g>
  </g>
</svg>
